# xmcd
#
# Track frame offsets:
#	182
#	23525
#	41292
#	55400
#	77072
#	97207
#	117497
#	131540
#	143375
#	160757
#
# Disc length: 2423 seconds
#
# Revision: 13
# Processed by: cddbd v1.5.2PL0 Copyright (c) Steve Scherf et al.
# Submitted via: audiograbber 1.83.01
#
DISCID=7909750a
DTITLE=The Simpsons - Sing The Blues
DYEAR=1990
DGENRE=Blues
TTITLE0=Do The Bartman
TTITLE1=School Day
TTITLE2=Born Under A Bad Sign
TTITLE3=Moanin' Lisa Blues
TTITLE4=Deep, Deep Trouble
TTITLE5=God Bless The Child
TTITLE6=I Love To See You Smile
TTITLE7=Springfield Soul Stew
TTITLE8=Look At All Those Idiots
TTITLE9=Sibling Rivalry
EXTD=
EXTT0=
EXTT1=
EXTT2=
EXTT3=
EXTT4=
EXTT5=
EXTT6=
EXTT7=
EXTT8=
EXTT9=
PLAYORDER=
